<?xml version="1.0" standalone="no"?>
<!DOCTYPE svg PUBLIC "-//W3C//DTD SVG 20010904//EN"
 "http://www.w3.org/TR/2001/REC-SVG-20010904/DTD/svg10.dtd">
<svg version="1.0" xmlns="http://www.w3.org/2000/svg"
 width="698.000000pt" height="357.000000pt" viewBox="0 0 698.000000 357.000000"
 preserveAspectRatio="xMidYMid meet">

<g transform="translate(0.000000,357.000000) scale(0.100000,-0.100000)"
fill="#000000" stroke="none">
<path d="M955 2925 c-252 -47 -461 -232 -537 -475 -20 -64 -23 -96 -22 -215 0
-126 3 -148 27 -214 78 -217 256 -383 477 -447 90 -26 270 -26 360 0 123 36
217 92 310 185 97 98 146 181 180 305 29 104 25 296 -8 396 -47 141 -152 278
-280 361 -156 102 -327 138 -507 104z m278 -325 c72 -27 153 -112 182 -191 30
-83 28 -209 -5 -273 -35 -69 -68 -91 -137 -91 -50 0 -58 3 -82 31 l-26 32 -18
-24 c-25 -34 -82 -49 -134 -35 -77 21 -120 104 -110 213 7 75 32 118 87 146
52 27 99 24 142 -8 l28 -21 0 21 c0 16 6 20 34 20 l34 0 6 -127 c8 -156 11
-170 35 -178 51 -16 81 39 81 153 0 135 -40 211 -135 257 -50 25 -63 27 -138
23 -125 -7 -201 -56 -248 -163 -32 -72 -32 -208 1 -282 25 -59 92 -126 148
-150 40 -17 178 -23 225 -10 28 8 28 7 25 -30 -3 -38 -4 -38 -58 -47 -135 -23
-299 34 -372 130 -57 74 -73 131 -73 254 0 93 3 112 27 162 84 181 287 260
481 188z"/>
<path d="M1032 2360 c-30 -13 -52 -67 -52 -130 0 -113 75 -167 141 -101 26 27
29 36 29 96 0 114 -44 164 -118 135z"/>
<path d="M2580 2926 c-187 -40 -346 -146 -444 -295 -82 -127 -115 -236 -116
-386 0 -313 193 -571 500 -667 98 -30 271 -32 370 -4 148 43 306 152 386 267
l29 42 11 -110 c7 -60 17 -184 24 -274 6 -90 16 -168 20 -173 5 -5 74 -3 160
4 l152 13 -4 74 c-3 40 -7 75 -9 77 -2 2 -64 0 -137 -6 -74 -5 -136 -7 -139
-4 -3 2 -13 103 -24 223 -10 120 -29 342 -43 493 -13 151 -23 277 -21 279 4 4
291 26 473 36 106 7 122 6 122 -8 0 -8 13 -201 30 -428 16 -228 30 -429 30
-447 0 -26 4 -33 17 -30 19 4 19 17 -1 273 -7 88 -11 162 -9 165 7 7 103 -122
103 -138 0 -4 23 -42 50 -86 74 -115 90 -150 90 -200 0 -63 17 -70 139 -63
188 11 329 74 456 202 137 137 195 265 203 446 8 177 -23 293 -115 431 -145
219 -422 340 -678 296 -49 -9 -116 -26 -147 -37 -86 -33 -196 -110 -263 -184
l-60 -66 -215 -17 -215 -16 -20 28 c-11 16 -53 63 -95 104 -83 83 -195 147
-305 175 -87 22 -227 27 -305 11z m73 -303 c-5 -52 2 -96 22 -145 6 -15 2 -18
-22 -18 -58 0 -93 52 -93 138 0 40 38 82 74 82 23 0 24 -2 19 -57z m148 17
c47 -22 89 -205 89 -390 0 -174 -42 -367 -84 -389 -25 -13 -105 -41 -117 -41
-13 0 -11 126 3 172 7 26 21 44 39 53 41 22 54 72 53 210 -1 131 -16 188 -53
200 -43 13 -76 137 -52 197 10 27 11 27 53 14 24 -7 55 -19 69 -26z m1696
-402 c-5 -30 -1 -37 46 -76 29 -23 90 -78 137 -121 l85 -79 -24 -26 c-27 -29
-71 -35 -91 -11 -11 13 -6 15 35 15 l48 0 -64 57 c-35 32 -93 86 -129 120 -66
65 -69 66 -107 63 -32 -2 -29 8 14 52 45 47 57 48 50 6z m-1231 -109 c3 -6 2
-21 -4 -32 -6 -12 -12 -29 -15 -38 -4 -12 -23 -18 -66 -23 -50 -6 -64 -12 -77
-32 -44 -66 -86 13 -48 91 19 40 32 47 109 55 60 6 88 0 101 -21z m-593 -126
c-10 -23 -16 -66 -16 -110 1 -70 0 -73 -23 -73 -41 0 -64 33 -64 90 0 82 34
129 92 130 l27 0 -16 -37z"/>
<path d="M5815 2925 c-246 -46 -447 -219 -532 -457 -35 -99 -43 -276 -18 -381
57 -243 249 -442 495 -513 90 -26 270 -26 360 0 249 72 439 268 496 514 24
103 15 285 -19 380 -84 240 -288 413 -537 458 -92 16 -154 16 -245 -1z m261
-315 c72 -35 107 -72 142 -150 32 -68 35 -154 9 -222 -10 -27 -48 -83 -83
-125 -72 -87 -134 -203 -160 -305 -24 -90 -45 -92 -69 -5 -35 127 -79 203
-210 365 -60 75 -79 173 -50 269 53 180 246 259 421 173z"/>
<path d="M5890 2601 c-118 -24 -210 -134 -210 -251 0 -55 30 -128 73 -177 93
-104 163 -219 182 -296 9 -34 16 -27 40 38 28 77 68 144 135 223 34 40 68 88
76 107 16 40 18 124 4 177 -33 117 -178 204 -300 179z m139 -182 c26 -25 31
-39 31 -76 0 -38 -5 -50 -34 -79 -40 -40 -83 -45 -132 -15 -95 58 -52 201 61
201 35 0 49 -6 74 -31z m-64 -349 c10 -16 -16 -43 -28 -31 -11 11 -2 41 12 41
5 0 13 -5 16 -10z"/>
<path d="M4125 967 c-198 -39 -361 -72 -363 -72 -1 -1 29 -112 67 -246 38
-134 95 -335 127 -446 l57 -203 365 0 364 0 -7 32 c-7 33 -48 208 -169 720
-36 153 -66 280 -66 283 0 6 37 13 -375 -68z"/>
</g>
</svg>
